<svg xmlns="http://www.w3.org/2000/svg" width="115.851" height="22.223" viewBox="0 0 115.851 22.223">
  <g id="Hipaasafe_Logo_W" data-name="Hipaasafe Logo W" transform="translate(-16 -460.884)">
    <path id="Path_8875" data-name="Path 8875" d="M10.67-7.756h2.719V-20.438H10.67v4.982H4.68v-4.982H1.98V-7.756h2.7V-13.08h5.99ZM17.021-18.29a1.444,1.444,0,0,0,1.445-1.445,1.444,1.444,0,0,0-1.445-1.445,1.457,1.457,0,0,0-1.445,1.445A1.457,1.457,0,0,0,17.021-18.29Zm-1.2,10.534h2.415V-16.94H15.823Zm7.226,3.5V-8.934a3.509,3.509,0,0,0,2.833,1.407c2.358,0,4.069-1.768,4.069-4.83s-1.711-4.811-4.069-4.811a3.548,3.548,0,0,0-2.833,1.388v-1.16H20.634V-4.257Zm4.392-8.1a2.388,2.388,0,0,1-2.32,2.681,2.765,2.765,0,0,1-2.073-1.046v-3.252a2.7,2.7,0,0,1,2.073-1.046A2.381,2.381,0,0,1,27.441-12.357Zm9.831,4.6h2.415v-5.933c0-2.643-1.921-3.48-4.012-3.48a6.025,6.025,0,0,0-4.012,1.445l.913,1.616a3.864,3.864,0,0,1,2.681-1.084c1.217,0,2.016.608,2.016,1.54v1.274A3.712,3.712,0,0,0,34.362-13.5a2.908,2.908,0,0,0-3.194,2.928,3.06,3.06,0,0,0,3.194,3.042,3.8,3.8,0,0,0,2.909-1.179Zm0-2.206a2.415,2.415,0,0,1-1.94.8c-.951,0-1.73-.494-1.73-1.35,0-.894.78-1.388,1.73-1.388a2.415,2.415,0,0,1,1.94.8ZM47.6-7.756h2.415v-5.933c0-2.643-1.921-3.48-4.012-3.48a6.025,6.025,0,0,0-4.012,1.445l.913,1.616a3.864,3.864,0,0,1,2.681-1.084c1.217,0,2.016.608,2.016,1.54v1.274A3.712,3.712,0,0,0,44.687-13.5a2.908,2.908,0,0,0-3.194,2.928,3.06,3.06,0,0,0,3.194,3.042A3.8,3.8,0,0,0,47.6-8.706Zm0-2.206a2.415,2.415,0,0,1-1.94.8c-.951,0-1.73-.494-1.73-1.35,0-.894.78-1.388,1.73-1.388a2.415,2.415,0,0,1,1.94.8Zm4.012,1.008a6.182,6.182,0,0,0,4.107,1.426c2.548,0,3.974-1.274,3.974-2.947,0-2.282-2.111-2.7-3.689-3-1.027-.209-1.749-.418-1.749-.989,0-.532.57-.856,1.445-.856a3.875,3.875,0,0,1,2.719,1.065l.97-1.654a5.867,5.867,0,0,0-3.708-1.255c-2.415,0-3.765,1.35-3.765,2.89,0,2.187,2.035,2.567,3.613,2.871,1.046.209,1.844.437,1.844,1.084,0,.57-.494.932-1.54.932a5.257,5.257,0,0,1-3.175-1.255Zm15.383,1.2h2.415v-5.933c0-2.643-1.921-3.48-4.012-3.48a6.025,6.025,0,0,0-4.012,1.445l.913,1.616a3.864,3.864,0,0,1,2.681-1.084c1.217,0,2.016.608,2.016,1.54v1.274A3.712,3.712,0,0,0,64.083-13.5a2.908,2.908,0,0,0-3.194,2.928,3.06,3.06,0,0,0,3.194,3.042,3.8,3.8,0,0,0,2.909-1.179Zm0-2.206a2.415,2.415,0,0,1-1.94.8c-.951,0-1.73-.494-1.73-1.35,0-.894.78-1.388,1.73-1.388a2.415,2.415,0,0,1,1.94.8Zm5.343,2.206h2.434v-7.074h1.863V-16.94H74.769V-17.4c0-.875.456-1.331,1.141-1.331a1.482,1.482,0,0,1,.78.19l.494-1.711a3.9,3.9,0,0,0-1.749-.38,2.96,2.96,0,0,0-3.1,3.194v.494H70.814v2.111h1.521Zm5.1-4.6a4.651,4.651,0,0,0,4.906,4.83A5.725,5.725,0,0,0,86.121-8.8l-1.065-1.559a3.756,3.756,0,0,1-2.453.913,2.475,2.475,0,0,1-2.643-2.13h6.826v-.532c0-3-1.863-5.058-4.6-5.058A4.674,4.674,0,0,0,77.431-12.357Zm4.754-2.89a2.127,2.127,0,0,1,2.263,2.035H79.922A2.207,2.207,0,0,1,82.185-15.247Z" transform="translate(45.065 485.826)" fill="#0098ff"/>
    <g id="Group_12366" data-name="Group 12366" transform="translate(16 460.884)">
      <path id="Subtraction_18" data-name="Subtraction 18" d="M11.117,22.223A11.105,11.105,0,0,1,.123,12.765H6.246a.6.6,0,0,0,.559-.375c.464-1.13,1.2-2.919,1.755-4.241.643,2.272,1.766,6.233,2.219,7.831a.608.608,0,0,0,.53.438l.051,0a.608.608,0,0,0,.545-.343l2.605-5.446.812,1.673a.608.608,0,0,0,.544.341h6.274a10.794,10.794,0,0,1-1.277,3.805.6.6,0,0,0-.073.324c.063.5.137,1,.208,1.492.031.214.063.434.094.651.064.462.126.912.192,1.389v.01c.045.327.1.7.147,1.069l-.222-.016c-1.608-.225-2.962-.412-4.349-.6a.7.7,0,0,0-.4.078,11.078,11.078,0,0,1-5.343,1.373Zm.39-8.114h0l-.094-.331c-.576-2.031-2.105-7.427-2.144-7.571a.605.605,0,0,0-.544-.457c-.042,0-.082-.006-.118-.006-.182,0-.3.074-.528.513S7.507,7.526,6.886,9.023h0c-.421,1.015-.836,2.022-1.045,2.532H.009C0,11.274,0,10.989.007,10.71A11.111,11.111,0,0,1,17.149,1.784a12.426,12.426,0,0,1,1.075.774,11.267,11.267,0,0,1,.948.857,10.551,10.551,0,0,1,.821.937,10.227,10.227,0,0,1,1.261,2.109,10.856,10.856,0,0,1,.441,1.168,11.772,11.772,0,0,1,.315,1.242,13.13,13.13,0,0,1,.189,1.313,10.839,10.839,0,0,1,.042,1.25H16.247L15.052,8.973a.608.608,0,0,0-.544-.341h0a.608.608,0,0,0-.544.344L11.507,14.11Z" transform="translate(0 0)" fill="#0098ff"/>
    </g>
  </g>
</svg>
