<svg xmlns="http://www.w3.org/2000/svg" width="303.497" height="58.219" viewBox="0 0 303.497 58.219">
  <g id="Hipaasafe_Logo_W" data-name="Hipaasafe Logo W" transform="translate(-16 -460.884)">
    <path id="Path_8875" data-name="Path 8875" d="M24.745,13.988h7.123V-19.237H24.745V-6.186H9.054V-19.237H1.98V13.988H9.054V.041H24.745Zm16.638-27.6a3.784,3.784,0,0,0,3.786-3.786,3.784,3.784,0,0,0-3.786-3.786A3.816,3.816,0,0,0,37.6-17.394,3.816,3.816,0,0,0,41.383-13.608Zm-3.138,27.6h6.326v-24.06H38.244Zm18.929,9.166V10.9A9.193,9.193,0,0,0,64.6,14.586c6.177,0,10.66-4.633,10.66-12.653s-4.483-12.6-10.66-12.6a9.3,9.3,0,0,0-7.422,3.636v-3.039H50.847V23.154ZM68.68,1.933c0,4.184-2.441,7.024-6.077,7.024a7.245,7.245,0,0,1-5.43-2.74V-2.3A7.086,7.086,0,0,1,62.6-5.04C66.239-5.04,68.68-2.2,68.68,1.933ZM94.434,13.988h6.326V-1.553c0-6.924-5.031-9.116-10.511-9.116A15.783,15.783,0,0,0,79.739-6.884L82.13-2.649a10.123,10.123,0,0,1,7.024-2.839c3.188,0,5.28,1.594,5.28,4.035V1.884C92.84-.059,90-1.055,86.812-1.055c-3.836,0-8.369,2.042-8.369,7.671,0,5.38,4.533,7.97,8.369,7.97A9.956,9.956,0,0,0,94.434,11.5Zm0-5.778A6.328,6.328,0,0,1,89.353,10.3c-2.491,0-4.533-1.3-4.533-3.537,0-2.341,2.042-3.636,4.533-3.636a6.328,6.328,0,0,1,5.081,2.092Zm27.049,5.778h6.326V-1.553c0-6.924-5.031-9.116-10.511-9.116a15.783,15.783,0,0,0-10.511,3.786l2.391,4.234A10.123,10.123,0,0,1,116.2-5.489c3.188,0,5.28,1.594,5.28,4.035V1.884c-1.594-1.943-4.433-2.939-7.621-2.939-3.836,0-8.369,2.042-8.369,7.671,0,5.38,4.533,7.97,8.369,7.97a9.956,9.956,0,0,0,7.621-3.088Zm0-5.778A6.328,6.328,0,0,1,116.4,10.3c-2.491,0-4.533-1.3-4.533-3.537,0-2.341,2.042-3.636,4.533-3.636a6.328,6.328,0,0,1,5.081,2.092Zm10.511,2.64a16.2,16.2,0,0,0,10.76,3.736c6.675,0,10.411-3.338,10.411-7.721,0-5.978-5.529-7.074-9.664-7.871-2.69-.548-4.583-1.1-4.583-2.59,0-1.395,1.494-2.242,3.786-2.242a10.15,10.15,0,0,1,7.123,2.79l2.54-4.334a15.369,15.369,0,0,0-9.714-3.288c-6.326,0-9.863,3.537-9.863,7.572,0,5.729,5.33,6.725,9.465,7.522,2.74.548,4.832,1.146,4.832,2.839,0,1.494-1.3,2.441-4.035,2.441a13.771,13.771,0,0,1-8.319-3.288Zm40.3,3.138h6.326V-1.553c0-6.924-5.031-9.116-10.511-9.116A15.783,15.783,0,0,0,157.6-6.884l2.391,4.234a10.123,10.123,0,0,1,7.024-2.839c3.188,0,5.28,1.594,5.28,4.035V1.884c-1.594-1.943-4.433-2.939-7.621-2.939-3.836,0-8.369,2.042-8.369,7.671,0,5.38,4.533,7.97,8.369,7.97a9.956,9.956,0,0,0,7.621-3.088Zm0-5.778a6.328,6.328,0,0,1-5.081,2.092c-2.491,0-4.533-1.3-4.533-3.537,0-2.341,2.042-3.636,4.533-3.636a6.328,6.328,0,0,1,5.081,2.092Zm14,5.778h6.376V-4.542h4.882v-5.529h-4.882v-1.2c0-2.291,1.2-3.487,2.989-3.487a3.883,3.883,0,0,1,2.042.5l1.3-4.483a10.23,10.23,0,0,0-4.583-1c-4.732,0-8.12,3.138-8.12,8.369v1.3h-3.985v5.529h3.985ZM199.64,1.933c0,7.721,5.529,12.653,12.852,12.653,3.736,0,7.522-1.146,9.913-3.338l-2.79-4.085a9.839,9.839,0,0,1-6.426,2.391c-4.085,0-6.526-2.54-6.924-5.579h17.883V2.581c0-7.871-4.882-13.25-12.055-13.25A12.245,12.245,0,0,0,199.64,1.933Zm12.453-7.572a5.573,5.573,0,0,1,5.928,5.33H206.166A5.782,5.782,0,0,1,212.094-5.638Z" transform="translate(95.349 491.921)" fill="#fff"/>
    <g id="Group_12366" data-name="Group 12366" transform="translate(16 460.884)">
      <path id="Subtraction_18" data-name="Subtraction 18" d="M29.124,58.219A29.093,29.093,0,0,1,.322,33.44h16.04a1.579,1.579,0,0,0,1.465-.983c1.214-2.961,3.148-7.647,4.6-11.111,1.685,5.953,4.627,16.329,5.814,20.514a1.592,1.592,0,0,0,1.389,1.146c.045,0,.09.006.135.006a1.592,1.592,0,0,0,1.428-.9l6.825-14.266,2.128,4.382a1.593,1.593,0,0,0,1.425.892H58.006a28.276,28.276,0,0,1-3.346,9.969,1.57,1.57,0,0,0-.192.85c.166,1.3.359,2.627.546,3.908.082.559.166,1.138.246,1.7.169,1.21.331,2.39.5,3.64l0,.027c.117.857.25,1.829.385,2.8l-.582-.041c-4.211-.589-7.76-1.079-11.393-1.56a1.845,1.845,0,0,0-1.054.2,29.022,29.022,0,0,1-14,3.6Zm1.021-21.255h0L29.9,36.1c-1.508-5.321-5.515-19.457-5.618-19.835a1.586,1.586,0,0,0-1.424-1.2c-.11-.008-.214-.015-.309-.015-.477,0-.79.194-1.384,1.344s-1.5,3.324-3.124,7.245h0c-1.1,2.659-2.189,5.3-2.738,6.633H.023c-.029-.738-.03-1.483,0-2.214A29.107,29.107,0,0,1,44.926,4.674,32.551,32.551,0,0,1,47.742,6.7a29.515,29.515,0,0,1,2.482,2.244,27.639,27.639,0,0,1,2.15,2.455,26.793,26.793,0,0,1,3.3,5.525,28.439,28.439,0,0,1,1.155,3.06,30.839,30.839,0,0,1,.825,3.252,34.4,34.4,0,0,1,.494,3.44,28.394,28.394,0,0,1,.11,3.274h-15.7l-3.13-6.447a1.593,1.593,0,0,0-1.425-.892h0a1.593,1.593,0,0,0-1.424.9L30.145,36.963Z" transform="translate(0 0)" fill="#fff"/>
    </g>
  </g>
</svg>
