<svg xmlns="http://www.w3.org/2000/svg" width="57" height="57" viewBox="0 0 57 57">
  <g id="Group_66352" data-name="Group 66352" transform="translate(-552 -149)">
    <rect id="Rectangle_17443" data-name="Rectangle 17443" width="57" height="57" rx="26" transform="translate(552 149)" fill="#edf7ff"/>
    <g id="Group_66454" data-name="Group 66454" transform="translate(567 164)">
      <path id="Path_139803" data-name="Path 139803" d="M0,0H27V27H0Z" fill="none"/>
      <path id="Path_139804" data-name="Path 139804" d="M12.078,16.04a8.29,8.29,0,0,1,8.016,7.56H4.062A8.29,8.29,0,0,1,12.078,16.04ZM10.247,18.5a6.182,6.182,0,0,0-3.42,2.938h5.251Zm3.663,0L12.078,21.44h5.25A6.178,6.178,0,0,0,13.91,18.5ZM18.137,2V8.48a6.28,6.28,0,0,1-6.059,6.48A6.28,6.28,0,0,1,6.019,8.48V2ZM8.039,8.48a4.186,4.186,0,0,0,4.039,4.32,4.186,4.186,0,0,0,4.039-4.32Zm8.079-4.32H8.039V6.32h8.079Z" transform="translate(1.422 0.7)" fill="#1d9bff"/>
    </g>
  </g>
</svg>
