<svg xmlns="http://www.w3.org/2000/svg" xmlns:xlink="http://www.w3.org/1999/xlink" width="57" height="57" viewBox="0 0 57 57">
  <defs>
    <clipPath id="clip-path">
      <rect id="Rectangle_19247" data-name="Rectangle 19247" width="27" height="27" transform="translate(278 164)" fill="#1d9bff"/>
    </clipPath>
  </defs>
  <g id="Group_66354" data-name="Group 66354" transform="translate(-263 -149)">
    <rect id="Rectangle_17441" data-name="Rectangle 17441" width="57" height="57" rx="26" transform="translate(263 149)" fill="#edf7ff"/>
    <g id="Mask_Group_18673" data-name="Mask Group 18673" clip-path="url(#clip-path)">
      <path id="doctor_1_" data-name="doctor (1)" d="M21.375,5.625H18V4.5a3.375,3.375,0,0,0-3.375-3.375h-2.25A3.375,3.375,0,0,0,9,4.5V5.625H5.625A5.632,5.632,0,0,0,0,11.25v9a5.632,5.632,0,0,0,5.625,5.625h15.75A5.632,5.632,0,0,0,27,20.25v-9a5.632,5.632,0,0,0-5.625-5.625ZM11.25,4.5a1.125,1.125,0,0,1,1.125-1.125h2.25A1.125,1.125,0,0,1,15.75,4.5V5.625h-4.5Zm13.5,15.75a3.375,3.375,0,0,1-3.375,3.375H5.625A3.375,3.375,0,0,1,2.25,20.25v-9A3.375,3.375,0,0,1,5.625,7.875h15.75A3.375,3.375,0,0,1,24.75,11.25ZM18,15.75a1.125,1.125,0,0,1-1.125,1.125h-2.25v2.25a1.125,1.125,0,0,1-2.25,0v-2.25h-2.25a1.125,1.125,0,0,1,0-2.25h2.25v-2.25a1.125,1.125,0,0,1,2.25,0v2.25h2.25A1.125,1.125,0,0,1,18,15.75Z" transform="translate(278 164)" fill="#1d9bff"/>
    </g>
  </g>
</svg>
