<svg xmlns="http://www.w3.org/2000/svg" xmlns:xlink="http://www.w3.org/1999/xlink" width="36" height="36" viewBox="0 0 36 36">
  <defs>
    <clipPath id="clip-path">
      <rect id="Rectangle_64" data-name="Rectangle 64" width="18" height="18" transform="translate(-0.393 -0.393)" fill="#b2b9cc"/>
    </clipPath>
  </defs>
  <g id="Group_66016" data-name="Group 66016" transform="translate(-16.074 -91.074)">
    <rect id="Rectangle_30" data-name="Rectangle 30" width="36" height="36" rx="18" transform="translate(16.074 91.074)" fill="#eef2fc"/>
    <g id="Mask_Group_33" data-name="Mask Group 33" transform="translate(25.467 100.467)" clip-path="url(#clip-path)">
      <g id="Group_132" data-name="Group 132" transform="translate(2.582 1.721)">
        <path id="Path_115" data-name="Path 115" d="M215.553,213.737a2.386,2.386,0,1,1,2.386,2.386A2.386,2.386,0,0,1,215.553,213.737Zm2.386-3.487a3.487,3.487,0,1,0,3.487,3.487A3.487,3.487,0,0,0,217.939,210.25Zm-4.588,12.3a2.386,2.386,0,0,1,2.386-2.386h4.4a2.386,2.386,0,0,1,2.386,2.386.918.918,0,0,1-.918.918h-7.341A.918.918,0,0,1,213.351,222.546Zm2.386-3.487a3.487,3.487,0,0,0-3.487,3.487,2.019,2.019,0,0,0,2.019,2.019h7.341a2.019,2.019,0,0,0,2.019-2.019,3.487,3.487,0,0,0-3.487-3.487Z" transform="translate(-212.25 -210.25)" fill="#b2b9cc"/>
      </g>
    </g>
  </g>
</svg>
