<svg xmlns="http://www.w3.org/2000/svg" width="57" height="57" viewBox="0 0 57 57">
  <g id="Group_66354" data-name="Group 66354" transform="translate(-263 -149)">
    <rect id="Rectangle_17441" data-name="Rectangle 17441" width="57" height="57" rx="26" transform="translate(263 149)" fill="#edf7ff"/>
    <g id="Group_66456" data-name="Group 66456" transform="translate(278 164)">
      <path id="Path_139814" data-name="Path 139814" d="M0,0H27V27H0Z" fill="none"/>
      <path id="Path_139815" data-name="Path 139815" d="M13.25,24.5A11.25,11.25,0,1,1,24.5,13.25,11.25,11.25,0,0,1,13.25,24.5Zm0-2.25a9,9,0,1,0-9-9A9,9,0,0,0,13.25,22.25Zm-1.122-4.5L7.355,12.977l1.591-1.591,3.183,3.183L18.491,8.2,20.083,9.8Z" transform="translate(0.25 0.25)" fill="#1d9bff"/>
    </g>
  </g>
</svg>
